{"title":"Criminal.2016.1080p.BluRay.x265.10bit-z97","uid":15370688,"size":921807750,"categoryP":"video","categoryS":"movies","magnet":"?xt=urn:btih:7f853e724312b5e8b7bd1921fc38f07dbe3e215a&amp;dn=Criminal.2016.1080p.BluRay.x265.10bit-z97&amp;tr=udp%3A%2F%2Ftracker.leechers-paradise.org%3A6969&amp;tr=udp%3A%2F%2Fzer0day.ch%3A1337&amp;tr=udp%3A%2F%2Fopen.demonii.com%3A1337&amp;tr=udp%3A%2F%2Ftracker.coppersurfer.tk%3A6969&amp;tr=udp%3A%2F%2Fexodus.desync.com%3A6969","seeders":0,"leechers":5,"uploader":"48848448","files":2,"time":1469137953,"description":"______ _____  ______\r\n                       |___  /|  _  ||___  /\r\n                          / / | |_| |   / / \r\n                         / /  ____ |  / /  \r\n                       ./ /___.___/ /./ /   \r\n                       _____/____/ _/   \r\n\r\n\r\n                         RELEASE NOTES                         \r\n▄▄▄▄▄▄▄▄▄▄▄▄▄▄▄▄▄▄▄▄▄▄▄▄▄▄▄▄▄▄▄▄▄▄▄▄▄▄▄▄▄▄▄▄▄▄▄▄▄▄▄▄▄▄▄▄▄▄▄▄▄▄▄▄▄\r\n\r\n              Criminal 2016 1080p BluRay x265 10bit\r\n               \r\niMDB url                       : www.imdb.com/title/tt3014866\r\niMDB Rating                    : 6.3/10 from 10,346 votes\r\nRelease                        : 2016 - April 15th\r\nGenre                          : Action, Crime, Drama\r\nSource                         : Retail Blu-ray\r\nSubs                           : ENG\r\n\r\n                         PLOT SUMMARY                     \r\n▄▄▄▄▄▄▄▄▄▄▄▄▄▄▄▄▄▄▄▄▄▄▄▄▄▄▄▄▄▄▄▄▄▄▄▄▄▄▄▄▄▄▄▄▄▄▄▄▄▄▄▄▄▄▄▄▄▄▄▄▄▄▄▄▄▄\r\n\r\nIn a last-ditch effort to stop a diabolical plot, a dead CIA\r\noperative's memories, secrets, and skills are implanted into a\r\ndeath-row inmate in hopes that he will complete the operative's\r\nmission. \r\n\r\nDirector : Ariel Vromen\r\nStars    : Kevin Costner, Ryan Reynolds, Gal Gadot\r\n\r\n                      RELEASE INFORMATION                 \r\n▄▄▄▄▄▄▄▄▄▄▄▄▄▄▄▄▄▄▄▄▄▄▄▄▄▄▄▄▄▄▄▄▄▄▄▄▄▄▄▄▄▄▄▄▄▄▄▄▄▄▄▄▄▄▄▄▄▄▄▄▄▄▄▄▄▄\r\n\r\nVideo\r\nID                             : 1\r\nFormat                         : HEVC\r\nFormat/Info                    : High Efficiency Video Coding\r\nFormat profile                 : Main   @High\r\nCodec ID                       : V_MPEGH/ISO/HEVC\r\nDuration                       : 1h 53mn\r\nBit rate                       : 837 Kbps\r\nWidth                          : 1 920 pixels\r\nHeight                         : 804 pixels\r\nDisplay aspect ratio           : 2.40:1\r\nFrame rate mode                : Constant\r\nFrame rate                     : 23.976 fps\r\nColor space                    : YUV\r\nChroma subsampling             : 4:2:0\r\nBit depth                      : 10 bits\r\nBits/(Pixel*Frame)             : 0.023\r\nStream size                    : 680 MiB (77%)\r\nWriting library                : x265 2.0+4[64 bit] 10bit\r\nLanguage                       : English\r\nDefault                        : Yes\r\nForced                         : No\r\n\r\nAudio\r\nID                             : 2\r\nFormat                         : AC-3\r\nFormat/Info                    : Audio Coding 3\r\nMode extension                 : CM (complete main)\r\nFormat settings, Endianness    : Big\r\nCodec ID                       : A_AC3\r\nDuration                       : 1h 53mn\r\nBit rate mode                  : Constant\r\nBit rate                       : 224 Kbps\r\nChannel(s)                     : 6 channels\r\nChannel positions              : Front: L C R, Side: L R, LFE\r\nSampling rate                  : 48.0 KHz\r\nCompression mode               : Lossy\r\nStream size                    : 182 MiB (21%)\r\nLanguage                       : English\r\nDefault                        : Yes\r\nForced                         : No","torrent":{"xt":"urn:btih:7f853e724312b5e8b7bd1921fc38f07dbe3e215a","amp;dn":"Criminal.2016.1080p.BluRay.x265.10bit-z97","amp;tr":["udp%3A%2F%2Ftracker.leechers-paradise.org%3A6969","udp%3A%2F%2Fzer0day.ch%3A1337","udp%3A%2F%2Fopen.demonii.com%3A1337","udp%3A%2F%2Ftracker.coppersurfer.tk%3A6969","udp%3A%2F%2Fexodus.desync.com%3A6969"],"infoHash":"7f853e724312b5e8b7bd1921fc38f07dbe3e215a","infoHashBuffer":{"type":"Buffer","data":[127,133,62,114,67,18,181,232,183,189,25,33,252,56,240,125,190,62,33,90]},"announce":[],"urlList":[]}}